<svg width="960" height="540" viewBox="0 0 960 540" fill="none" xmlns="http://www.w3.org/2000/svg">
  <defs>
    <linearGradient id="bg" x1="0" y1="0" x2="960" y2="540" gradientUnits="userSpaceOnUse">
      <stop stop-color="#191829"/>
      <stop offset="1" stop-color="#0D0F15"/>
    </linearGradient>
    <linearGradient id="accent" x1="160" y1="120" x2="820" y2="420" gradientUnits="userSpaceOnUse">
      <stop stop-color="#A7F3D0"/>
      <stop offset="1" stop-color="#34D399"/>
    </linearGradient>
  </defs>
  <rect width="960" height="540" rx="28" fill="url(#bg)"/>
  <rect x="72" y="70" width="816" height="72" rx="18" fill="#141827"/>
  <circle cx="120" cy="106" r="12" fill="#34D399"/>
  <rect x="152" y="96" width="240" height="20" rx="10" fill="#2C3650"/>
  <rect x="72" y="170" width="816" height="300" rx="24" fill="url(#accent)" opacity="0.16"/>
  <rect x="108" y="210" width="280" height="70" rx="18" fill="#1B2233"/>
  <rect x="108" y="304" width="260" height="60" rx="16" fill="#1B2233"/>
  <rect x="402" y="304" width="220" height="60" rx="16" fill="#1B2233"/>
  <rect x="108" y="386" width="514" height="50" rx="16" fill="#1B2233"/>
  <rect x="650" y="210" width="190" height="226" rx="20" fill="#1B2233"/>
  <text x="120" y="255" fill="#D1FAE5" font-family="Segoe UI, sans-serif" font-size="22" font-weight="600">Bean &amp; Brew</text>
  <text x="120" y="280" fill="#BFEBD8" font-family="Segoe UI, sans-serif" font-size="14">Rewards dashboard</text>
</svg>